<svg xmlns="http://www.w3.org/2000/svg" width="180" height="40" viewBox="0 0 180 40">
  <g fill="none" fill-rule="evenodd">
    <rect width="40" height="40" fill="#0984E3" rx="8"/>
    <path fill="#FFFFFF" d="M12,10 L28,10 C29.1045695,10 30,10.8954305 30,12 L30,28 C30,29.1045695 29.1045695,30 28,30 L12,30 C10.8954305,30 10,29.1045695 10,28 L10,12 C10,10.8954305 10.8954305,10 12,10 Z M13,13 L13,27 L27,27 L27,13 L13,13 Z"/>
    <rect width="10" height="2" x="15" y="19" fill="#FFFFFF" rx="1"/>
    <rect width="6" height="2" x="15" y="23" fill="#FFFFFF" rx="1"/>
    <path fill="#2D3436" d="M48,25 L48,15 L50.5,15 L50.5,22.8 L55.3,22.8 L55.3,25 L48,25 Z M57.2,25 L57.2,15 L59.7,15 L59.7,25 L57.2,25 Z M68.7,25 L68.7,15 L71.2,15 L71.2,22.8 L76,22.8 L76,25 L68.7,25 Z M78.1,25 L78.1,15 L80.6,15 L80.6,25 L78.1,25 Z M82.7,20 C82.7,17.1 85,14.8 88,14.8 C91,14.8 93.3,17.1 93.3,20 C93.3,22.9 91,25.2 88,25.2 C85,25.2 82.7,22.9 82.7,20 Z M85.2,20 C85.2,21.6 86.4,22.9 88,22.9 C89.6,22.9 90.8,21.6 90.8,20 C90.8,18.4 89.6,17.1 88,17.1 C86.4,17.1 85.2,18.4 85.2,20 Z M95.4,25 L95.4,15 L97.9,15 L104.6,21.3 L104.6,15 L107.1,15 L107.1,25 L104.6,25 L97.9,18.7 L97.9,25 L95.4,25 Z M116.1,25 L116.1,15 L118.6,15 L118.6,25 L116.1,25 Z M121.4,25 L121.4,15 L123.9,15 L130.6,21.3 L130.6,15 L133.1,15 L133.1,25 L130.6,25 L123.9,18.7 L123.9,25 L121.4,25 Z M135.2,15 L142.7,15 C144.5,15 145.7,16.2 145.7,18 C145.7,19.3 145,20.3 143.9,20.7 C145.2,21 146.1,22.1 146.1,23.5 C146.1,24.5 145.7,25.6 143.6,25.6 L135.2,25.6 L135.2,15 Z M137.7,19.2 L142,19.2 C142.6,19.2 143.1,18.8 143.1,18.2 C143.1,17.6 142.6,17.2 142,17.2 L137.7,17.2 L137.7,19.2 Z M137.7,23.4 L142.5,23.4 C143.1,23.4 143.6,23 143.6,22.4 C143.6,21.8 143.1,21.4 142.5,21.4 L137.7,21.4 L137.7,23.4 Z M148.2,15 L155.7,15 C157.5,15 158.7,16.2 158.7,18 C158.7,19.3 158,20.3 156.9,20.7 C158.2,21 159.1,22.1 159.1,23.5 C159.1,24.5 158.7,25.6 156.6,25.6 L148.2,25.6 L148.2,15 Z M150.7,19.2 L155,19.2 C155.6,19.2 156.1,18.8 156.1,18.2 C156.1,17.6 155.6,17.2 155,17.2 L150.7,17.2 L150.7,19.2 Z M150.7,23.4 L155.5,23.4 C156.1,23.4 156.6,23 156.6,22.4 C156.6,21.8 156.1,21.4 155.5,21.4 L150.7,21.4 L150.7,23.4 Z M165.6,25.2 C162.6,25.2 160.3,22.9 160.3,20 C160.3,17.1 162.6,14.8 165.6,14.8 C168.6,14.8 170.9,17.1 170.9,20 C170.9,22.9 168.6,25.2 165.6,25.2 Z M165.6,22.9 C167.2,22.9 168.4,21.6 168.4,20 C168.4,18.4 167.2,17.1 165.6,17.1 C164,17.1 162.8,18.4 162.8,20 C162.8,21.6 164,22.9 165.6,22.9 Z"/>
  </g>
</svg>
